<?xml version="1.0" encoding="UTF-8"?> <svg xmlns="http://www.w3.org/2000/svg" viewBox="0.107 -9.567 141.732 141.732" xml:space="preserve"> <path d="M29.116 115.383h13.438v-11.996H29.116v11.996zm70.277 0h13.438v-11.996H99.393v11.996zM13.438 48.19h6.756L4.481 70.695h13.168L0 97.465h29.115v2.213L46.64 71.531h-14.8l17.662-26.774h-7.594l6.885-11.662-12.959-20.739L13.438 48.19zm79.714-15.098 6.885 11.662h-7.594l17.662 26.774H95.303l17.524 28.146v-2.213h29.117l-17.65-26.771h13.171l-15.713-22.5h6.756l-22.396-35.834-12.96 20.736zM45.95 42.643h7.592L35.879 69.42h14.806l-19.836 31.854h32.725v21.323h15.104v-21.323h32.727L91.561 69.42h14.803L88.701 42.643h7.592L71.122 0 45.95 42.643z" fill="#ffffff" class="fill-000000"></path> </svg> 