<?xml version="1.0" encoding="UTF-8"?> <svg xmlns="http://www.w3.org/2000/svg" id="Icons" viewBox="0 0 32 32" xml:space="preserve"> <path d="M21 25H11c-2.2 0-4-1.8-4-4V6c0-2.2 1.8-4 4-4h10c2.2 0 4 1.8 4 4v15c0 2.2-1.8 4-4 4zM7 30l5-5M25 30l-5-5" fill="none" stroke="#ffffff" stroke-width="2" stroke-linecap="round" stroke-linejoin="round" stroke-miterlimit="10" class="stroke-000000"></path> <path d="M22 3v9c0 2.2-1.8 4-4 4h-4c-2.2 0-4-1.8-4-4V3" fill="none" stroke="#ffffff" stroke-width="2" stroke-linecap="round" stroke-linejoin="round" stroke-miterlimit="10" class="stroke-000000"></path> <circle cx="11.5" cy="20.5" r="1.5" fill="none" stroke="#ffffff" stroke-width="2" stroke-linecap="round" stroke-linejoin="round" stroke-miterlimit="10" class="stroke-000000"></circle> <circle cx="20.5" cy="20.5" r="1.5" fill="none" stroke="#ffffff" stroke-width="2" stroke-linecap="round" stroke-linejoin="round" stroke-miterlimit="10" class="stroke-000000"></circle> <path d="M9 28h14" fill="none" stroke="#ffffff" stroke-width="2" stroke-linecap="round" stroke-linejoin="round" stroke-miterlimit="10" class="stroke-000000"></path> </svg> 